<?xml version="1.0" standalone="no"?>
<!DOCTYPE svg PUBLIC "-//W3C//DTD SVG 20010904//EN"
 "http://www.w3.org/TR/2001/REC-SVG-20010904/DTD/svg10.dtd">
<svg version="1.0" xmlns="http://www.w3.org/2000/svg"
 width="300.000000pt" height="100.000000pt" viewBox="0 0 300.000000 100.000000"
 preserveAspectRatio="xMidYMid meet">
<metadata>
Created by potrace 1.10, written by Peter Selinger 2001-2011
</metadata>
<g transform="translate(0.000000,100.000000) scale(0.100000,-0.100000)"
fill="#000000" stroke="none">
<path d="M400 942 l-65 -18 -3 -112 c-2 -96 0 -119 19 -161 24 -58 120 -154
174 -177 34 -14 40 -14 83 7 26 13 72 48 103 79 75 74 91 122 87 261 l-3 103
-50 13 c-84 24 -269 26 -345 5z m303 -42 l47 -12 0 -92 c0 -66 -5 -102 -19
-131 -20 -43 -90 -114 -140 -139 -28 -15 -34 -15 -61 -1 -47 24 -99 74 -127
122 -22 38 -27 61 -31 142 l-5 98 44 11 c24 6 53 14 64 16 33 8 176 -1 228
-14z"/>
<path d="M613 778 l-73 -72 -33 32 c-23 22 -42 32 -65 32 -18 0 -32 -2 -32 -6
0 -3 30 -33 66 -68 l65 -63 90 91 c49 50 89 92 89 94 0 4 -27 32 -32 32 -2 0
-36 -32 -75 -72z"/>
<path d="M960 754 l0 -134 80 0 c73 0 83 3 105 25 30 29 32 68 5 95 -19 19
-19 22 -5 36 8 9 15 29 15 44 0 43 -33 60 -124 64 l-76 4 0 -134z m139 72 c19
-23 2 -44 -40 -48 -38 -3 -39 -3 -39 29 0 31 2 33 34 33 18 0 39 -6 45 -14z
m9 -119 c6 -28 -17 -47 -54 -47 -33 0 -34 1 -34 38 l0 38 42 -5 c30 -4 44 -11
46 -24z"/>
<path d="M1220 886 c0 -3 -1 -65 -1 -138 l0 -132 28 0 28 0 -1 135 0 134 -27
3 c-15 2 -27 1 -27 -2z"/>
<path d="M1330 755 c0 -128 1 -135 20 -135 11 0 23 -1 27 -2 7 -3 4 154 -3
180 -3 10 13 -18 36 -60 52 -100 70 -103 108 -18 15 32 29 59 32 60 3 0 4 -37
2 -83 l-3 -83 27 1 27 2 -1 133 0 133 -25 1 c-22 1 -30 -9 -63 -76 -21 -43
-41 -78 -44 -78 -4 0 -23 36 -43 80 -33 75 -38 80 -66 80 l-31 0 0 -135z"/>
<path d="M1745 881 c-3 -6 -26 -62 -49 -123 -24 -62 -47 -120 -50 -129 -6 -13
-1 -16 23 -15 24 1 33 7 40 29 9 25 14 27 65 27 48 0 55 -2 58 -22 2 -14 13
-24 32 -29 17 -5 32 -7 33 -5 2 2 -18 64 -44 137 -44 123 -50 134 -75 137 -14
2 -29 -2 -33 -7z m58 -146 c6 -18 2 -20 -33 -20 -22 0 -40 1 -40 1 0 1 6 17
14 35 7 19 16 43 21 54 7 20 13 9 38 -70z"/>
<path d="M2094 757 c-27 -71 -50 -133 -52 -138 -2 -4 9 -7 25 -6 20 1 31 10
40 30 12 26 16 28 65 25 45 -3 53 -6 56 -24 2 -16 12 -23 35 -27 18 -2 33 -4
34 -3 2 1 -19 62 -46 136 -46 128 -49 133 -78 135 -29 2 -30 0 -79 -128z m116
-42 c0 0 -18 0 -40 0 -22 0 -40 0 -40 1 0 1 6 17 14 35 7 19 16 43 20 54 6 16
11 9 26 -35 11 -30 19 -55 20 -55z"/>
<path d="M2340 886 c0 -3 -1 -65 -1 -138 l0 -132 26 0 26 0 0 135 0 134 -25 3
c-14 2 -26 1 -26 -2z"/>
<path d="M2452 754 l3 -137 74 2 c42 1 88 9 104 17 77 40 74 189 -4 230 -19 9
-65 19 -106 21 l-74 4 3 -137z m160 56 c23 -29 23 -92 1 -119 -11 -12 -36 -23
-60 -27 l-43 -7 0 93 0 93 42 -6 c27 -4 49 -14 60 -27z"/>
<path d="M1910 735 c0 -24 2 -25 60 -25 56 0 60 1 56 23 -3 19 -10 22 -59 25
-55 3 -57 2 -57 -23z"/>
</g>
</svg>
